# xmcd
#
# Track frame offsets: 
#        150
#        30060
#        69790
#        106883
#        146240
#        177935
#        218630
#
# Disc length: 3570 seconds
#
# Revision: 1
# Processed by: cddbd v1.5.2PL0 Copyright (c) Steve Scherf et al.
# Submitted via: ExactAudioCopy v0.99pb4
#
DISCID=540df007
DTITLE=Ralph Moore - Rejuvenate!
DYEAR=1989
DGENRE=Jazz
TTITLE0=Rejuvenate!
TTITLE1=Josephine
TTITLE2=C.R.M.
TTITLE3=Exact Change
TTITLE4=It Might As Well Be Spring
TTITLE5=Song For Soweto
TTITLE6=Melody for Mr. C
EXTD=YEAR: 1989
EXTT0=
EXTT1=
EXTT2=
EXTT3=
EXTT4=
EXTT5=
EXTT6=
PLAYORDER=
